<svg xmlns="http://www.w3.org/2000/svg" viewBox="-48 -48 96 96"><g><path d="M0 0 C 12.0 -8.5, 28.8 -4.7, 40 0 C 28.8 4.7, 12.0 8.5, 0 0 Z" fill="#3e6ae1" transform="rotate(-90)"/><path d="M0 0 C 10.2 -8.5, 24.5 -4.7, 34 0 C 24.5 4.7, 10.2 8.5, 0 0 Z" fill="#171a20" transform="rotate(-50)"/><path d="M0 0 C 12.6 -8.5, 30.2 -4.7, 42 0 C 30.2 4.7, 12.6 8.5, 0 0 Z" fill="#171a20" transform="rotate(-10)"/><path d="M0 0 C 10.8 -8.5, 25.9 -4.7, 36 0 C 25.9 4.7, 10.8 8.5, 0 0 Z" fill="#171a20" transform="rotate(30)"/><path d="M0 0 C 12.0 -8.5, 28.8 -4.7, 40 0 C 28.8 4.7, 12.0 8.5, 0 0 Z" fill="#171a20" transform="rotate(70)"/><path d="M0 0 C 9.9 -8.5, 23.8 -4.7, 33 0 C 23.8 4.7, 9.9 8.5, 0 0 Z" fill="#171a20" transform="rotate(110)"/><path d="M0 0 C 12.3 -8.5, 29.5 -4.7, 41 0 C 29.5 4.7, 12.3 8.5, 0 0 Z" fill="#171a20" transform="rotate(150)"/><path d="M0 0 C 10.5 -8.5, 25.2 -4.7, 35 0 C 25.2 4.7, 10.5 8.5, 0 0 Z" fill="#171a20" transform="rotate(190)"/><path d="M0 0 C 11.4 -8.5, 27.4 -4.7, 38 0 C 27.4 4.7, 11.4 8.5, 0 0 Z" fill="#171a20" transform="rotate(230)"/><circle r="5.5" fill="#171a20"/></g></svg>